<?xml version="1.0" encoding="utf-8"?>
<!-- Generator: Adobe Illustrator 24.1.1, SVG Export Plug-In . SVG Version: 6.00 Build 0)  -->
<svg version="1.1" id="Layer_1" xmlns="http://www.w3.org/2000/svg" xmlns:xlink="http://www.w3.org/1999/xlink" x="0px" y="0px"
	 viewBox="0 0 1518.9 385.23" style="enable-background:new 0 0 1518.9 385.23;" xml:space="preserve">
<style type="text/css">
	.st0{fill:#FF00FF;}
	.st1{fill:#FFFFFF;}
</style>
<path class="st0" d="M219.42,385.23L219.42,385.23c-106.38,0-192.62-86.24-192.62-192.61v0C26.8,86.24,113.04,0,219.42,0h0
	c106.38,0,192.61,86.24,192.61,192.61v0C412.03,298.99,325.79,385.23,219.42,385.23z"/>
<g>
	<path d="M219.4,308.34c-24,0-48.02,0.39-72.01-0.1c-28.48-0.59-50.78-13.38-66.97-36.6c-9.33-13.37-14.06-28.42-14.11-44.8
		c-0.06-20.29-0.24-40.58,0.06-60.87c0.57-37.72,29.77-71.87,66.95-78.52c4.8-0.86,9.72-1.4,14.59-1.41
		c47.68-0.1,95.36-0.38,143.04,0.06c29.42,0.27,52.2,13.77,68.44,38.09c8.6,12.87,13.04,27.25,13.11,42.81
		c0.09,20.51,0.27,41.02-0.05,61.53c-0.59,37.94-30.31,72.27-67.75,78.44c-5.77,0.95-11.69,1.34-17.54,1.38
		c-22.58,0.16-45.17,0.06-67.76,0.06C219.4,308.37,219.4,308.35,219.4,308.34z M219.75,113.1c-23.46,0-46.93-0.02-70.39,0.03
		c-2.93,0.01-5.88,0.23-8.78,0.65c-26.41,3.77-47.06,27.53-47.13,54.23c-0.05,19.2-0.04,38.41,0.02,57.61
		c0.01,2.82,0.25,5.66,0.65,8.45c3.78,26.38,27.56,47.08,54.25,47.11c47.36,0.06,94.73,0.02,142.09-0.01c2.49,0,5-0.25,7.47-0.62
		c27.21-4.08,47.41-27.45,47.46-54.92c0.03-19.09,0.03-38.19-0.02-57.28c-0.01-2.6-0.24-5.22-0.62-7.8
		c-4.09-27.23-27.44-47.4-54.93-47.45C266.46,113.07,243.1,113.1,219.75,113.1z"/>
	<path d="M135.85,218.87c-0.01-8.17-0.01-8.11-8.22-8.19c-3.36-0.04-6.84,0.12-10.03-0.7c-6.64-1.71-10.23-8.03-9.29-15.25
		c0.79-6.06,6.57-10.99,13.08-11.09c3.6-0.06,7.21-0.18,10.8,0.04c2.81,0.17,3.83-0.63,3.74-3.61c-0.13-4.55-0.16-9.19,0.55-13.67
		c1.03-6.51,7.44-11.28,13.6-10.84c7.23,0.51,12.69,6.02,12.9,13.15c0.12,4.03,0.1,8.07,0.04,12.1c-0.03,2.1,0.82,2.91,2.93,2.85
		c3.92-0.11,7.85-0.07,11.78-0.01c7.52,0.12,13.36,6.14,13.32,13.67c-0.04,7.32-5.9,13.26-13.27,13.39
		c-3.49,0.06-6.98,0.01-10.47,0.02c-4.25,0.01-4.26,0.01-4.27,4.41c-0.01,3.16,0.03,6.33-0.02,9.49
		c-0.13,8.01-5.67,13.94-13.22,14.18c-7.2,0.23-13.45-5.89-13.91-13.7C135.75,223.02,135.85,220.94,135.85,218.87z"/>
	<path d="M274.86,197.15c0,7.49-5.99,13.51-13.46,13.54c-7.64,0.02-13.67-6.04-13.62-13.7c0.05-7.46,6.1-13.39,13.62-13.37
		C268.88,183.64,274.87,189.67,274.86,197.15z"/>
	<path d="M330.63,197.33c-0.05,7.57-5.96,13.39-13.54,13.36c-7.39-0.03-13.6-6.22-13.59-13.55c0.02-7.48,6.33-13.6,13.94-13.52
		C324.94,183.7,330.68,189.67,330.63,197.33z"/>
	<path d="M289.06,182.64c-7.65-0.06-13.26-5.81-13.22-13.56c0.03-7.45,6.17-13.62,13.48-13.56c7.22,0.06,13.59,6.43,13.65,13.64
		C303.03,176.59,296.72,182.71,289.06,182.64z"/>
	<path d="M289.32,211.66c7.47,0.01,13.63,6.06,13.65,13.41c0.02,7.17-6.34,13.59-13.58,13.71c-7.39,0.13-13.59-6.19-13.55-13.83
		C275.88,217.28,281.59,211.65,289.32,211.66z"/>
</g>
<g>
	<path class="st1" d="M573.83,169.92c-5.43,2.12-12.62,4.22-21.58,6.31c-8.96,2.09-17.89,3.14-26.8,3.14
		c-20.63,0-36.79-5.61-48.46-16.82c-11.67-11.21-17.51-26.7-17.51-46.46c0-18.84,5.89-34.03,17.67-45.57
		c11.78-11.54,28.21-17.31,49.28-17.31c7.98,0,15.58,0.72,22.8,2.16c7.22,1.44,15.26,4.3,24.11,8.59v28.42h-3.5
		c-1.52-1.14-3.75-2.76-6.68-4.85c-2.93-2.09-5.76-3.87-8.47-5.33c-3.15-1.74-6.83-3.23-11.04-4.48c-4.21-1.25-8.67-1.87-13.4-1.87
		c-5.54,0-10.56,0.81-15.07,2.44c-4.51,1.63-8.55,4.13-12.14,7.49c-3.42,3.26-6.12,7.4-8.1,12.42c-1.98,5.02-2.97,10.82-2.97,17.39
		c0,13.41,3.56,23.67,10.67,30.79c7.11,7.11,17.62,10.67,31.52,10.67c1.19,0,2.51-0.03,3.95-0.08c1.44-0.05,2.75-0.13,3.95-0.24
		v-23.78h-24.19v-22.89h55.95V169.92z"/>
	<path class="st1" d="M713.91,176.84h-32.3l-8.45-24.52h-44.88l-8.45,24.52h-31.52l44.79-121.27h36L713.91,176.84z M665.65,130.09
		l-14.92-43.45l-14.92,43.45H665.65z"/>
	<path class="st1" d="M858.48,176.84h-31.11v-81.2l-22.48,52.7H783.3l-22.48-52.7v81.2h-29.48V55.57h36.33l27.28,60.84l27.2-60.84
		h36.33V176.84z"/>
	<path class="st1" d="M954.99,176.84h-71.02v-21.5h19.87V77.07h-19.87v-21.5h71.02v21.5h-19.87v78.27h19.87V176.84z"/>
	<path class="st1" d="M1090.76,176.84h-30.14l-51.47-83.24v83.24h-28.67V55.57h37.38l44.23,69.47V55.57h28.67V176.84z"/>
	<path class="st1" d="M1228.98,169.92c-5.43,2.12-12.62,4.22-21.58,6.31c-8.96,2.09-17.89,3.14-26.8,3.14
		c-20.63,0-36.79-5.61-48.46-16.82c-11.67-11.21-17.51-26.7-17.51-46.46c0-18.84,5.89-34.03,17.67-45.57
		c11.78-11.54,28.21-17.31,49.28-17.31c7.98,0,15.58,0.72,22.8,2.16c7.22,1.44,15.26,4.3,24.11,8.59v28.42h-3.5
		c-1.52-1.14-3.75-2.76-6.68-4.85c-2.93-2.09-5.76-3.87-8.47-5.33c-3.15-1.74-6.83-3.23-11.04-4.48c-4.21-1.25-8.67-1.87-13.4-1.87
		c-5.54,0-10.56,0.81-15.07,2.44s-8.55,4.13-12.13,7.49c-3.42,3.26-6.12,7.4-8.1,12.42c-1.98,5.02-2.97,10.82-2.97,17.39
		c0,13.41,3.56,23.67,10.67,30.79c7.11,7.11,17.62,10.67,31.52,10.67c1.19,0,2.51-0.03,3.95-0.08c1.44-0.05,2.75-0.13,3.95-0.24
		v-23.78h-24.19v-22.89h55.95V169.92z"/>
	<path class="st1" d="M575.29,338.6h-31.28v-53.43h-46.18v53.43h-31.28V217.33h31.28v44.39h46.18v-44.39h31.28V338.6z"/>
	<path class="st1" d="M712.45,294.7c0,14.99-4.56,26.47-13.68,34.45c-9.12,7.98-22.56,11.97-40.32,11.97s-31.18-3.99-40.28-11.97
		c-9.09-7.98-13.64-19.44-13.64-34.37v-77.46h31.44v75.66c0,8.42,1.76,14.69,5.29,18.81c3.53,4.13,9.26,6.19,17.19,6.19
		c7.82,0,13.53-1.98,17.14-5.95c3.61-3.96,5.42-10.32,5.42-19.06v-75.66h31.44V294.7z"/>
	<path class="st1" d="M845.45,301.46c0,5.86-1.18,11.1-3.54,15.72c-2.36,4.62-5.61,8.44-9.73,11.48
		c-4.78,3.58-10.03,6.14-15.76,7.66c-5.73,1.52-12.99,2.28-21.79,2.28h-52.94V217.33h47.08c9.77,0,16.93,0.33,21.46,0.98
		c4.53,0.65,9.03,2.09,13.48,4.32c4.61,2.34,8.05,5.47,10.3,9.41c2.25,3.94,3.38,8.43,3.38,13.48c0,5.86-1.55,11.04-4.64,15.52
		s-7.47,7.97-13.11,10.47v0.65c7.93,1.58,14.21,4.83,18.85,9.77C843.13,286.85,845.45,293.37,845.45,301.46z M805.38,251.61
		c0-2.01-0.5-4.02-1.51-6.03c-1.01-2.01-2.78-3.5-5.33-4.48c-2.28-0.87-5.12-1.34-8.51-1.42s-8.16-0.12-14.29-0.12h-2.93v25.66h4.89
		c4.94,0,9.15-0.08,12.62-0.24c3.47-0.16,6.22-0.71,8.23-1.63c2.82-1.25,4.67-2.86,5.54-4.85
		C804.94,256.51,805.38,254.22,805.38,251.61z M812.95,300.97c0-3.85-0.75-6.83-2.24-8.92c-1.49-2.09-4.02-3.65-7.6-4.68
		c-2.44-0.71-5.8-1.09-10.08-1.14c-4.28-0.05-8.75-0.08-13.41-0.08h-6.83v30.22h2.28c8.78,0,15.06-0.03,18.86-0.08
		c3.79-0.05,7.29-0.76,10.49-2.12c3.25-1.36,5.49-3.16,6.71-5.42C812.34,306.5,812.95,303.9,812.95,300.97z"/>
	<path class="st1" d="M981.38,296.41h-62.14v-23.46h62.14V296.41z"/>
	<path class="st1" d="M1189.96,338.6h-31.11v-81.2l-22.48,52.7h-21.58l-22.48-52.7v81.2h-29.48V217.33h36.33l27.28,60.84l27.2-60.84
		h36.33V338.6z"/>
	<path class="st1" d="M1338.85,278c0,19.33-5.54,34.68-16.61,46.06c-11.08,11.38-26.39,17.06-45.94,17.06
		c-19.49,0-34.78-5.69-45.85-17.06c-11.08-11.37-16.62-26.73-16.62-46.06c0-19.49,5.54-34.9,16.62-46.22s26.36-16.98,45.85-16.98
		c19.44,0,34.72,5.66,45.85,16.98C1333.28,243.1,1338.85,258.51,1338.85,278z M1297.39,308.71c3.04-3.69,5.29-8.05,6.76-13.07
		c1.47-5.02,2.2-10.93,2.2-17.71c0-7.28-0.84-13.47-2.52-18.57c-1.68-5.1-3.88-9.23-6.6-12.38c-2.77-3.26-5.96-5.62-9.57-7.09
		c-3.61-1.47-7.37-2.2-11.28-2.2c-3.96,0-7.7,0.71-11.2,2.12c-3.5,1.41-6.72,3.75-9.65,7c-2.71,3.04-4.93,7.24-6.64,12.58
		c-1.71,5.35-2.57,11.55-2.57,18.61c0,7.22,0.83,13.37,2.48,18.45c1.66,5.08,3.84,9.22,6.56,12.42c2.71,3.2,5.89,5.57,9.53,7.09
		c3.64,1.52,7.47,2.28,11.48,2.28c4.02,0,7.85-0.77,11.48-2.32S1294.68,311.97,1297.39,308.71z"/>
	<path class="st1" d="M1456.45,338.6h-101.89v-22.72l60.42-75.09h-57.49v-23.46h95.7v23.13l-60.4,74.69h63.66V338.6z"/>
</g>
</svg>
